# xmcd
#
# Track frame offsets:
#	150
#	13041
#	25258
#	38239
#	47309
#	58233
#	68390
#	77802
#	90440
#	100979
#	109855
#	121504
#	133934
#	144132
#	160848
#	172852
#
# Disc length: 2475 seconds
#
# Revision: 9
# Processed by: cddbd v1.5.2PL0 Copyright (c) Steve Scherf et al.
# Submitted via: VUPlayer 2.49
#
DISCID=be09a910
DTITLE=Various Artist - Arizona Country Road -- Grand Canyon State
DYEAR=1999
DGENRE=Country
TTITLE0=Don Williams - Where Do I Go from Here
TTITLE1=Patsy Cline -  A Poor Man's Roses
TTITLE2=Jack Greene - California Turn Arounds
TTITLE3=Loretta Lynn - Your Squaw is On the Warpath
TTITLE4=Charley Pride - Louisiana Man
TTITLE5=Patsy Cline - Pick Me Up On Your Way Down
TTITLE6=George Jones - Lonely Street
TTITLE7=Billie Jo Spears - Dallas
TTITLE8=Dolly Parton  - It Wasn't God Who Made Honky Tonk Women
TTITLE9=Dave Dudley - Keep On Trucking
TTITLE10=Kenny Rogers - Me and Bobby McGee
TTITLE11=Kenny Rogers - Reuben James
TTITLE12=Wanda Jackson - It's Only Make Believe
TTITLE13=Johnny Cash - Sunday Morning Coming Down
TTITLE14=Johnny Dollar - Big, Big Rollin' Man
TTITLE15=Willie Nelson - To All the Girls I've Loved Before
EXTD=
EXTT0=
EXTT1=
EXTT2=
EXTT3=
EXTT4=
EXTT5=
EXTT6=
EXTT7=
EXTT8=
EXTT9=
EXTT10=
EXTT11=
EXTT12=
EXTT13=
EXTT14=
EXTT15=
PLAYORDER=
